<?xml version="1.0" standalone="no"?>
<!DOCTYPE svg PUBLIC "-//W3C//DTD SVG 20010904//EN"
 "http://www.w3.org/TR/2001/REC-SVG-20010904/DTD/svg10.dtd">
<svg version="1.0" xmlns="http://www.w3.org/2000/svg"
 width="700.000000pt" height="700.000000pt" viewBox="0 0 700.000000 700.000000"
 preserveAspectRatio="xMidYMid meet">
<metadata>
Created by potrace 1.11, written by Peter Selinger 2001-2013
</metadata>
<g transform="translate(0.000000,700.000000) scale(0.100000,-0.100000)"
fill="#000000" stroke="none">
<path d="M3465 6841 c-6 -4 -41 -25 -80 -46 -98 -53 -612 -337 -717 -397 l-88
-50 0 -1629 c0 -896 3 -1629 8 -1629 4 0 41 13 82 28 l75 28 3 1564 3 1565
367 202 367 201 3 -1690 2 -1690 68 6 c37 4 74 9 82 12 14 4 16 78 15 677 0
369 1 681 3 693 2 11 16 25 30 31 15 6 178 95 361 197 184 102 339 186 343
186 10 0 9 -63 10 633 1 507 -2 611 -13 621 -8 7 -171 100 -364 206 -192 106
-363 201 -380 210 -158 88 -161 89 -180 71z"/>
<path d="M2295 5044 c-66 -37 -129 -72 -140 -78 -11 -6 -108 -60 -215 -119
l-195 -108 3 -1016 c1 -559 4 -1018 6 -1020 1 -2 68 33 147 78 184 103 382
199 472 228 20 7 37 16 38 19 1 4 2 474 3 1045 0 570 1 1037 1 1037 0 0 -54
-30 -120 -66z"/>
<path d="M4569 5082 c-3 -112 -1 -1763 2 -1767 3 -2 36 -9 75 -14 162 -24 180
-27 299 -51 55 -11 142 -32 193 -45 52 -14 95 -25 95 -25 2 0 -1 1505 -2 1545
-1 15 -18 30 -58 52 -87 46 -174 94 -208 113 -16 10 -55 31 -85 48 -30 16
-112 61 -182 100 l-128 70 -1 -26z"/>
<path d="M1360 3763 c-113 -63 -239 -133 -280 -155 -41 -23 -104 -58 -140 -78
-83 -48 -152 -86 -215 -120 -64 -35 -142 -78 -258 -143 l-92 -53 -1 -852 c-1
-468 -1 -852 0 -852 2 0 18 21 37 48 18 26 41 56 50 67 135 163 185 219 281
316 114 116 164 162 252 234 27 22 54 45 60 50 71 65 205 166 319 241 78 51
158 104 177 117 l35 23 0 634 c0 409 -4 634 -10 636 -6 1 -102 -50 -215 -113z"/>
<path d="M5399 3868 c-5 -135 2 -733 9 -740 7 -7 76 44 209 154 109 90 231
191 271 223 39 32 72 62 72 65 0 5 -182 109 -327 186 -12 7 -66 37 -121 68
-55 31 -103 56 -106 56 -3 0 -6 -6 -7 -12z"/>
<path d="M6088 3481 c-1 -4 -37 -46 -78 -92 -41 -45 -120 -133 -174 -193 -55
-61 -114 -127 -132 -146 l-33 -35 136 -70 c272 -140 500 -309 720 -535 l83
-84 0 445 0 446 -117 64 c-64 35 -137 75 -162 89 -230 127 -236 130 -243 111z"/>
<path d="M5618 3137 c-13 -13 -218 -182 -1083 -891 -269 -220 -501 -411 -515
-423 -14 -11 -169 -139 -345 -283 -324 -265 -346 -283 -400 -329 -17 -14 -48
-39 -69 -56 -21 -16 -44 -35 -50 -40 -87 -79 -111 -92 -180 -98 -138 -13 -263
-102 -327 -234 -31 -64 -33 -75 -33 -179 -1 -107 0 -112 36 -185 54 -107 114
-165 215 -207 183 -77 414 17 499 203 31 67 34 81 41 175 l6 75 75 85 c42 47
85 94 96 106 12 11 46 49 76 83 30 35 64 73 75 85 11 12 52 57 90 100 39 43
75 84 81 90 5 6 52 58 104 116 51 58 96 107 99 110 3 3 42 46 85 95 44 50 85
95 90 100 9 8 98 108 281 313 17 19 39 44 50 56 56 62 181 201 190 210 6 6 44
49 85 96 41 46 82 91 90 100 17 18 145 161 173 194 10 12 33 37 50 56 18 19
72 80 121 135 49 55 92 102 95 105 18 16 222 250 217 250 -2 0 -11 -6 -18 -13z
m-2531 -2368 c95 -46 129 -183 68 -270 -36 -52 -77 -77 -130 -82 -109 -10
-202 87 -193 199 11 134 138 210 255 153z"/>
<path d="M3877 3014 c-1 -1 -42 -5 -92 -8 -81 -5 -219 -20 -285 -31 -14 -2
-45 -7 -70 -10 -25 -3 -52 -8 -60 -10 -8 -2 -32 -6 -52 -9 -167 -25 -469 -108
-725 -199 l-143 -51 0 -174 c0 -152 2 -173 15 -168 44 17 294 71 370 81 61 7
127 16 155 21 97 16 469 23 596 12 l50 -5 170 266 c93 146 170 271 172 277 2
7 -15 11 -48 10 -29 -1 -52 -2 -53 -2z"/>
<path d="M4203 2972 c-17 -26 -102 -157 -188 -292 l-156 -245 28 -7 c15 -4 71
-17 123 -29 52 -12 148 -39 213 -61 65 -21 123 -36 130 -32 14 9 199 157 218
176 8 7 50 42 94 77 44 35 82 68 83 72 2 5 10 9 17 9 7 0 15 4 17 9 2 5 35 35
73 66 39 31 103 83 142 115 40 33 70 61 65 64 -9 5 -128 37 -162 42 -14 2 -45
9 -70 14 -63 13 -156 29 -215 35 -27 3 -61 8 -75 10 -14 3 -59 7 -100 10 -41
3 -104 7 -140 10 l-65 5 -32 -48z"/>
<path d="M5448 2697 c-37 -43 -68 -78 -129 -145 -19 -20 -68 -75 -109 -122
-41 -47 -86 -97 -100 -111 -26 -28 -41 -45 -155 -174 -38 -44 -80 -91 -92
-105 -13 -13 -23 -27 -23 -30 1 -3 20 -20 43 -38 23 -18 93 -84 156 -146 l114
-113 79 38 c43 22 80 39 82 39 2 0 68 31 147 69 146 70 244 116 379 178 41 20
129 61 195 92 66 32 144 68 174 82 l53 25 -68 63 c-89 82 -228 186 -351 263
-108 68 -319 178 -343 178 -8 0 -32 -19 -52 -43z"/>
<path d="M2110 2541 c-299 -151 -477 -263 -779 -490 l-24 -18 53 -76 c32 -48
56 -74 63 -70 7 4 35 21 62 38 200 127 535 287 748 359 15 5 17 22 17 161 0
118 -3 155 -12 155 -7 -1 -65 -27 -128 -59z"/>
<path d="M3079 2286 c-2 -2 -35 -6 -74 -10 -38 -3 -95 -11 -125 -16 -30 -5
-73 -12 -95 -15 -82 -12 -274 -58 -400 -97 -654 -201 -1256 -611 -1631 -1113
-178 -237 -287 -443 -370 -694 -19 -58 -34 -106 -34 -108 0 -2 181 -3 403 -3
l402 0 24 78 c14 42 28 84 32 92 4 8 14 31 21 50 69 183 243 455 401 626 76
82 202 205 242 236 17 12 37 29 45 37 30 29 197 149 275 198 202 126 404 223
615 295 98 33 365 103 427 112 22 3 52 8 65 11 93 22 388 34 580 24 l76 -4 96
78 c82 66 111 97 92 97 -3 0 -59 16 -126 35 -67 19 -136 37 -153 41 -18 3 -50
9 -72 14 -22 5 -67 12 -100 15 -33 4 -71 9 -85 12 -27 6 -525 14 -531 9z"/>
<path d="M6325 2035 c-38 -18 -110 -52 -160 -76 -49 -23 -124 -57 -165 -76
-41 -19 -118 -55 -170 -80 -52 -25 -129 -61 -170 -80 -41 -20 -113 -53 -160
-75 -47 -23 -117 -55 -156 -73 l-71 -33 57 -119 c86 -177 133 -327 164 -528
21 -133 14 -419 -13 -555 -11 -58 -21 -106 -21 -107 0 -2 311 -3 690 -3 380 0
690 3 690 8 0 4 7 39 14 77 37 177 49 423 33 630 -23 280 -133 613 -284 863
-64 107 -180 262 -195 262 -7 -1 -44 -16 -83 -35z"/>
<path d="M1124 1877 c-7 -7 -56 -55 -110 -107 -55 -52 -133 -133 -174 -180
-41 -46 -83 -93 -93 -105 -38 -41 -160 -205 -156 -209 2 -2 23 -13 47 -25 l43
-22 22 27 c32 39 286 295 332 335 43 37 137 113 178 144 15 11 27 24 27 28 0
16 -83 127 -94 127 -6 -1 -16 -6 -22 -13z"/>
<path d="M4661 1819 c-13 -17 -22 -31 -20 -33 2 -2 31 -18 64 -36 33 -18 95
-57 137 -87 75 -54 88 -64 157 -127 l34 -31 -34 50 c-46 68 -275 295 -296 294
-10 0 -29 -14 -42 -30z"/>
<path d="M462 1087 c-19 -23 -104 -172 -144 -250 -69 -139 -184 -440 -202
-534 -2 -10 -7 -31 -11 -46 -7 -27 -6 -28 25 -25 31 3 33 5 57 88 57 200 168
438 294 630 39 61 70 113 67 115 -2 2 -20 11 -40 19 -28 12 -38 13 -46 3z"/>
</g>
</svg>
