<svg width="36" height="42" fill="none" xmlns="http://www.w3.org/2000/svg"><path d="M17.986 0C8.14 0 0 7.808 0 17.467c0 4.868 1.783 9.387 4.723 13.217A45.679 45.679 0 0016.455 41.48c1.13.718 2.059.668 3.088 0a46.575 46.575 0 0011.734-10.796C34.215 26.854 36 22.334 36 17.467 36 7.807 27.86 0 17.986 0" fill="#E12427"/><path fill-rule="evenodd" clip-rule="evenodd" d="M22.719 21.378l-.232.25c.55.262 1.054.615 1.489 1.044a5.59 5.59 0 00-1.257-1.294zM8.1 24.738a7.801 7.801 0 00-1.107 2.346h2.913a6.708 6.708 0 01.943-1.991c1.934-2.84 5.8-4.497 9.18-4.146l.75-.59-.217-.075c-4.278-1.346-9.857.645-12.462 4.456z" fill="#F04B24"/><path d="M24.784 22.497a5.92 5.92 0 01.68 4.584h4.989c.555-2.385.01-4.671-1.54-6.462l-4.129 1.878zm-14.326-1.724l.383.533a13.401 13.401 0 013.032-1.434l-.016-1.111a16.163 16.163 0 00-3.4 2.012zM6.08 27.08h.228a8.31 8.31 0 011.23-2.632c.068-.097.134-.19.2-.28l-.312-.139A9.763 9.763 0 006.08 27.08zm1.763-3.661l.351.161a11.61 11.61 0 012.044-1.858l-.351-.48a13.309 13.309 0 00-2.044 2.177zm17.747-5.142l-1.777 1.917-.596.651c.403.32.78.67 1.13 1.047l4.027-1.833a9.208 9.208 0 00-2.784-1.782zm-5.915 1.095a9.918 9.918 0 011.764.478l2.636-2.09a13.453 13.453 0 00-3.046-.436l-1.354 2.048zm-.801-.106l1.278-1.942a16.81 16.81 0 00-5.574 1.14l.016 1.194a12.485 12.485 0 013.248-.44c.348 0 .695.02 1.032.048zm-1.793 6.959a.648.648 0 01-1.093-.246.663.663 0 01.305-.779.645.645 0 01.815.157.66.66 0 01-.027.868zm4.317-5.621l-.587.467-4.085 3.244h-.12a1.44 1.44 0 00-.804.248 1.477 1.477 0 00-.217 2.251 1.446 1.446 0 001.578.319c.265-.11.492-.298.651-.538.16-.24.245-.523.246-.812 0-.067-.006-.133-.016-.199l3.888-4.188.311-.338 3.948-4.26-4.793 3.806zm4.937-3.22a10.138 10.138 0 012.83 1.892l.467.466v-3.11l-1.832-.979-1.566 1.691.1.04zm-14.282 1.068c.76-.42 1.407-.75 1.407-.75l.998-.418v-7.276l-2.412 1.29.008 7.154zm12.6-7.161l-2.41-1.284V16.3c.815.085 1.621.24 2.41.465v-5.473zM8.945 20.58l1.165-.942c.434-.307.884-.59 1.347-.85v-4.502l-4.382 2.35v5.973a14.325 14.325 0 011.87-2.029zm6.723-14.642l2.684-1.432V16.35c.199-.027.397-.048.596-.068v-4.838l2.698-1.438v-4.34L18.353 3.9l-3.294 1.765v11.424l.61-.213V5.938z" fill="#fff"/></svg>