<svg width="32" height="32" fill="none" xmlns="http://www.w3.org/2000/svg"><circle r="15" transform="matrix(-1 0 0 1 16 16)" stroke="#475993" stroke-width="2"/><path d="M19.575 7.67l-1.999-.003c-2.245 0-3.697 1.449-3.697 3.691v1.703h-2.01a.31.31 0 00-.313.306v2.466c0 .169.14.306.314.306h2.01v6.222c0 .17.14.306.314.306h2.622a.31.31 0 00.314-.306v-6.223h2.35a.31.31 0 00.314-.305l.001-2.466a.302.302 0 00-.092-.217.319.319 0 00-.222-.09h-2.35v-1.442c0-.694.169-1.046 1.097-1.046h1.347a.31.31 0 00.314-.306v-2.29a.31.31 0 00-.314-.306z" fill="#475993"/></svg>