<svg width="32" height="32" fill="none" xmlns="http://www.w3.org/2000/svg"><path d="M24.795 20.174a1.195 1.195 0 00-.06-.115c-.31-.557-.898-1.24-1.769-2.05l-.018-.018-.01-.009-.008-.01h-.01c-.395-.376-.645-.63-.75-.76-.191-.247-.234-.497-.13-.75.075-.192.353-.597.834-1.215.253-.328.453-.59.601-.788 1.068-1.421 1.53-2.33 1.389-2.725l-.055-.093c-.037-.056-.133-.106-.287-.153a1.46 1.46 0 00-.593-.023l-2.665.018a.345.345 0 00-.186.005l-.12.028-.046.023-.037.028a.413.413 0 00-.102.097.637.637 0 00-.092.163 15.15 15.15 0 01-.99 2.085c-.23.384-.439.716-.63.997a4.787 4.787 0 01-.482.621 3.36 3.36 0 01-.351.32c-.105.08-.185.114-.24.102a6.702 6.702 0 01-.158-.037.617.617 0 01-.209-.227 1.021 1.021 0 01-.106-.362 3.995 3.995 0 01-.032-.375 7.894 7.894 0 01.004-.445c.007-.192.01-.322.01-.39 0-.235.004-.49.013-.765l.023-.653c.007-.16.01-.33.01-.51s-.011-.32-.033-.422a1.442 1.442 0 00-.097-.296.499.499 0 00-.19-.223 1.071 1.071 0 00-.31-.125c-.327-.074-.743-.114-1.25-.12-1.147-.013-1.884.061-2.211.222-.13.068-.247.16-.352.278-.111.136-.127.21-.046.222.37.056.632.189.786.399l.056.111c.043.08.086.223.13.427.043.204.07.43.083.676.03.452.03.838 0 1.16-.031.32-.06.57-.088.75a1.504 1.504 0 01-.236.64.158.158 0 01-.046.046.692.692 0 01-.25.046c-.087 0-.192-.043-.315-.13a2.223 2.223 0 01-.384-.356 4.77 4.77 0 01-.45-.635 11.388 11.388 0 01-.518-.964l-.148-.27a23.268 23.268 0 01-.379-.755 14.5 14.5 0 01-.426-.96.611.611 0 00-.222-.296l-.046-.028a.631.631 0 00-.148-.079.98.98 0 00-.213-.06l-2.536.018c-.26 0-.435.06-.528.177l-.037.055a.3.3 0 00-.028.149c0 .068.019.151.056.25.37.871.773 1.712 1.208 2.522.435.81.813 1.461 1.133 1.956.321.494.648.96.982 1.4.333.438.553.72.661.843.108.124.193.216.255.278l.231.223c.148.148.366.325.653.532.287.208.605.412.953.613.349.2.755.364 1.217.49.463.127.914.178 1.352.154h1.064c.216-.019.38-.087.491-.204l.037-.047a.612.612 0 00.07-.17.942.942 0 00.032-.256 3.053 3.053 0 01.06-.718 1.89 1.89 0 01.157-.482 1.184 1.184 0 01.357-.408.589.589 0 01.074-.033c.148-.049.322-.001.523.144.2.146.388.325.564.538.176.213.387.453.634.718.247.266.463.464.648.594l.185.11c.124.075.284.143.482.205.197.062.37.077.518.046l2.37-.037c.234 0 .416-.039.546-.116.13-.077.206-.162.231-.255a.72.72 0 00.005-.315 1.172 1.172 0 00-.065-.246z" fill="#436EAB"/><circle r="15" transform="matrix(-1 0 0 1 16 16)" stroke="#436EAB" stroke-width="2"/></svg>