<svg width="32" height="32" fill="none" xmlns="http://www.w3.org/2000/svg"><g clip-path="url(#clip0)"><path d="M19.368 7.667h-6.736a4.97 4.97 0 00-4.965 4.965v6.736a4.97 4.97 0 004.965 4.965h6.736a4.97 4.97 0 004.965-4.965v-6.736a4.97 4.97 0 00-4.965-4.965zm3.289 11.701a3.288 3.288 0 01-3.289 3.289h-6.736a3.288 3.288 0 01-3.289-3.289v-6.736a3.288 3.288 0 013.289-3.289h6.736a3.288 3.288 0 013.289 3.289v6.736z" fill="url(#paint0_linear)"/><path d="M16 11.556A4.45 4.45 0 0011.556 16 4.45 4.45 0 0016 20.444 4.45 4.45 0 0020.444 16 4.45 4.45 0 0016 11.556zm0 7.16a2.716 2.716 0 110-5.432 2.716 2.716 0 010 5.432z" fill="url(#paint1_linear)"/><path d="M20.722 12.111a.833.833 0 100-1.667.833.833 0 000 1.667z" fill="url(#paint2_linear)"/></g><circle r="15" transform="matrix(-1 0 0 1 16 16)" stroke="url(#paint3_linear)" stroke-width="2"/><defs><linearGradient id="paint0_linear" x1="16" y1="24.285" x2="16" y2="7.796" gradientUnits="userSpaceOnUse"><stop stop-color="#E09B3D"/><stop offset=".3" stop-color="#C74C4D"/><stop offset=".6" stop-color="#C21975"/><stop offset="1" stop-color="#7024C4"/></linearGradient><linearGradient id="paint1_linear" x1="16" y1="24.542" x2="16" y2="7.541" gradientUnits="userSpaceOnUse"><stop stop-color="#E09B3D"/><stop offset=".3" stop-color="#C74C4D"/><stop offset=".6" stop-color="#C21975"/><stop offset="1" stop-color="#7024C4"/></linearGradient><linearGradient id="paint2_linear" x1="20.722" y1="21.413" x2="20.722" y2="8.111" gradientUnits="userSpaceOnUse"><stop stop-color="#E09B3D"/><stop offset=".3" stop-color="#C74C4D"/><stop offset=".6" stop-color="#C21975"/><stop offset="1" stop-color="#7024C4"/></linearGradient><linearGradient id="paint3_linear" x1="16" y1="31.907" x2="16" y2=".249" gradientUnits="userSpaceOnUse"><stop stop-color="#E09B3D"/><stop offset=".3" stop-color="#C74C4D"/><stop offset=".6" stop-color="#C21975"/><stop offset="1" stop-color="#7024C4"/></linearGradient><clipPath id="clip0"><path fill="#fff" transform="translate(7.111 7.111)" d="M0 0h17.778v17.778H0z"/></clipPath></defs></svg>