<svg width="258" height="40" fill="none" xmlns="http://www.w3.org/2000/svg"><g clip-path="url(#clip0)"><path fill-rule="evenodd" clip-rule="evenodd" d="M27.745 29.954l-.387.428a9.11 9.11 0 012.483 1.789 9.468 9.468 0 00-2.096-2.217zM3.368 35.71a13.535 13.535 0 00-1.847 4.021h4.857a11.64 11.64 0 011.574-3.412c3.224-4.867 9.672-7.708 15.309-7.105l1.248-1.013-.36-.128C17.015 25.768 7.712 29.18 3.368 35.71z" fill="#F04B24"/><path d="M31.19 31.87a10.325 10.325 0 011.343 3.807c.195 1.35.124 2.728-.21 4.05h8.319c.926-4.089.018-8.006-2.568-11.075L31.19 31.87zM7.297 28.916l.64.913a22.085 22.085 0 015.055-2.458l-.026-1.904a26.8 26.8 0 00-5.669 3.45zM0 39.724h.381a14.425 14.425 0 012.052-4.51c.111-.168.223-.326.331-.481l-.519-.237A16.965 16.965 0 000 39.723zm2.94-6.275l.586.277a19.566 19.566 0 013.409-3.184l-.586-.825a22.574 22.574 0 00-3.41 3.732zm29.595-8.811l-2.964 3.285-.993 1.116a17.14 17.14 0 011.884 1.795l6.716-3.142a15.313 15.313 0 00-4.643-3.054zm-9.863 1.877c.702.125 1.396.296 2.078.514.258.085.586.2.861.304l4.397-3.58c-1.66-.448-3.364-.7-5.08-.748l-2.256 3.51zm-1.337-.183l2.131-3.327a27.38 27.38 0 00-9.294 1.952l.026 2.047a20.292 20.292 0 015.417-.754c.58 0 1.157.034 1.72.082zm-2.99 11.926a1.053 1.053 0 01-1.372.181 1.121 1.121 0 01-.45-.602 1.164 1.164 0 01.023-.762 1.11 1.11 0 01.485-.572 1.05 1.05 0 01.726-.12c.248.05.472.186.633.388a1.152 1.152 0 01-.044 1.487zm7.2-9.632l-.98.8-6.812 5.56h-.199c-.478 0-.944.149-1.341.425a2.492 2.492 0 00-.888 1.126c-.182.459-.23.963-.136 1.449.093.486.323.932.661 1.283.338.35.768.59 1.237.687a2.34 2.34 0 001.396-.142c.441-.189.819-.51 1.085-.921.266-.412.409-.896.41-1.392a2.623 2.623 0 00-.026-.34l6.483-7.179.519-.578 6.583-7.3-7.993 6.521zm6.555-6.243l3.298-2.695-3.435-1.889v4.541l.138.043zm1.675.724a16.886 16.886 0 014.718 3.242l.78.8V21.82l-3.054-1.679-2.611 2.9.167.066zM9.96 24.938c1.266-.72 2.345-1.287 2.345-1.287l1.664-.714v-12.47l-4.021 2.21.012 12.261zm21.01-12.273l-4.019-2.199V21.25c1.36.145 2.704.411 4.018.797v-9.38zM4.777 28.585L6.72 26.97a25.662 25.662 0 012.245-1.457v-7.714L1.66 21.826v10.235a24.308 24.308 0 013.119-3.476zm11.21-25.093l4.477-2.455v20.3c.33-.046.662-.082.993-.116V12.93l4.5-2.464V3.023L20.464 0l-5.493 3.023v19.58l1.017-.366V3.492zM64.338 28.73V17.173h-3.81V28.73c0 .406-.078.81-.228 1.185-.15.375-.37.717-.647 1.004a2.977 2.977 0 01-.968.671c-.362.156-.75.236-1.142.236H53.48c-.392 0-.78-.08-1.142-.236a2.979 2.979 0 01-.968-.67 3.108 3.108 0 01-.647-1.005 3.199 3.199 0 01-.227-1.185V17.173h-3.81V28.73c0 1.718.658 3.366 1.828 4.581a6.13 6.13 0 004.415 1.898h5.159c.82 0 1.632-.167 2.39-.492a6.233 6.233 0 002.028-1.404 6.503 6.503 0 001.355-2.102c.314-.787.476-1.63.476-2.481zm20.584-6.205a5.46 5.46 0 00-1.515-3.779 5.068 5.068 0 00-3.643-1.565H68.088v18.027h3.81v-7.32h3.946l5.909 7.32h4.613L80.44 27.86c2.934-.234 4.484-2.068 4.481-5.335zm-13.028 1.977V20.55h7.328c1.327 0 1.896.59 1.896 1.971 0 1.38-.569 1.968-1.897 1.968l-7.327.015zM101.11 35.21c3.241 0 4.956-1.776 4.956-5.14 0-2.16-.777-3.346-1.653-3.972.917-.812 1.38-2.078 1.38-3.775 0-3.364-1.714-5.14-4.956-5.14H88.691V35.21h12.419zm-8.615-14.645h7.598c1.33 0 1.896.59 1.896 1.971 0 1.381-.566 1.968-1.896 1.968h-7.598v-3.939zm7.867 7.324c1.331 0 1.9.587 1.9 1.968s-.569 1.971-1.9 1.971h-7.867v-3.939h7.867zm23.05 7.321h3.892l-8.11-18.027h-3.406l-8.107 18.027h3.925l1.758-3.954h8.263l1.785 3.954zm-8.544-7.327l2.623-5.821 2.638 5.821h-5.261zm18.665 7.327V22.793l10.056 12.415h3.515V17.18h-3.805v12.416L133.243 17.18h-3.515v18.03h3.805z" fill="#000"/><path d="M169.755 23.992h-6.827c-.261 0-.52-.054-.762-.159a1.986 1.986 0 01-.645-.449 2.119 2.119 0 01-.58-1.463c0-1.442.586-2.056 1.987-2.056h11.663v-3.547h-12.187c-.72 0-1.433.148-2.097.435a5.45 5.45 0 00-1.774 1.24 5.672 5.672 0 00-1.178 1.852 5.831 5.831 0 00-.4 2.18c.029 3.613 1.896 5.523 5.405 5.523h6.826c.528.001 1.033.22 1.406.608.372.387.581.913.581 1.46 0 1.442-.586 2.056-1.987 2.056h-11.947v3.547h12.472a5.28 5.28 0 002.094-.436 5.435 5.435 0 001.772-1.236 5.679 5.679 0 001.179-1.849c.271-.69.409-1.43.404-2.176-.03-3.623-1.897-5.53-5.405-5.53zm7.533-4.127h7.395V35.21h3.986V19.864h7.392v-3.547h-18.773v3.547zm37.16-3.547l-5.637 8.02-5.627-8.02h-4.596l8.23 11.704v7.188h3.986v-7.188l8.231-11.704h-4.587zm23.366 15.345h-12.513V16.318h-3.983V35.21h16.496v-3.546zm20.186 0h-13.365v-4.127h12.228v-3.544h-12.228v-4.127h13.081v-3.547h-17.068V35.21H258v-3.546z" fill="#F04B24"/></g><defs><clipPath id="clip0"><path fill="#fff" d="M0 0h258v40H0z"/></clipPath></defs></svg>