<svg width="40" height="40" fill="none" xmlns="http://www.w3.org/2000/svg"><g clip-path="url(#clip0)"><path fill-rule="evenodd" clip-rule="evenodd" d="M27.085 29.972l-.376.425a8.853 8.853 0 012.414 1.775 9.314 9.314 0 00-2.038-2.2zM3.383 35.685a13.56 13.56 0 00-1.796 3.99H6.31a11.636 11.636 0 011.53-3.386c3.135-4.83 9.405-7.648 14.885-7.05l1.214-1.005-.35-.127c-6.937-2.288-15.983 1.098-20.206 7.578z" fill="#F04B24"/><path d="M30.435 31.873a10.381 10.381 0 011.307 3.778c.19 1.34.12 2.707-.204 4.018h8.088c.9-4.057.017-7.944-2.497-10.989l-6.694 3.193zm-23.23-2.93l.621.905a21.3 21.3 0 014.916-2.438l-.026-1.89a25.97 25.97 0 00-5.511 3.423zM.108 39.665h.37a14.457 14.457 0 011.996-4.475c.108-.166.216-.323.322-.477l-.505-.235a17.017 17.017 0 00-2.183 5.187zm2.859-6.226l.57.275a19.182 19.182 0 013.314-3.16l-.57-.817a22.236 22.236 0 00-3.314 3.702zm28.776-8.742l-2.882 3.259-.966 1.108a16.843 16.843 0 011.833 1.78l6.529-3.117a14.866 14.866 0 00-4.514-3.03zm-9.59 1.862c.683.124 1.358.294 2.02.51.251.084.57.199.838.302l4.275-3.553a20.872 20.872 0 00-4.939-.742l-2.194 3.483zm-1.3-.181l2.072-3.302c-3.094.102-6.15.758-9.037 1.938l.026 2.03a19.365 19.365 0 015.266-.748c.564 0 1.126.033 1.673.082zM17.946 38.21a1.01 1.01 0 01-1.334.18 1.11 1.11 0 01-.438-.598 1.179 1.179 0 01.022-.756 1.1 1.1 0 01.472-.568 1.01 1.01 0 011.321.266c.156.2.242.452.242.712 0 .284-.102.557-.285.764zm7-9.558l-.952.794-6.623 5.517h-.194a2.26 2.26 0 00-1.304.422 2.466 2.466 0 00-.864 1.117 2.626 2.626 0 00-.132 1.438c.09.482.314.925.643 1.273a2.31 2.31 0 001.202.681 2.23 2.23 0 001.357-.14c.43-.188.797-.506 1.056-.915.259-.408.397-.889.399-1.38a2.67 2.67 0 00-.026-.339L25.812 30l.504-.573 6.401-7.243-7.771 6.47zm6.374-6.192l3.207-2.673-3.34-1.874v4.505l.134.043zm1.627.719c1.69.792 3.24 1.88 4.589 3.217l.758.793v-5.287l-2.97-1.666-2.539 2.876.162.067zM9.792 24.995c1.23-.715 2.28-1.276 2.28-1.276l1.618-.71V10.637L9.78 12.83l.012 12.165zM30.22 12.818l-3.907-2.182v10.699c1.321.144 2.629.408 3.907.79v-9.307zM4.753 28.614l1.89-1.603a24.917 24.917 0 012.183-1.445v-7.654L1.72 21.908v10.155a23.966 23.966 0 013.032-3.45zM15.654 3.716l4.352-2.435v20.141c.322-.045.644-.081.966-.114V13.08l4.375-2.445V3.251l-5.341-3-5.34 3v19.427l.988-.363V3.716zm47.01 25.043V17.29h-3.705v11.468c0 .403-.075.803-.221 1.175-.146.373-.36.712-.63.997a2.875 2.875 0 01-.94.666 2.76 2.76 0 01-1.11.234h-3.95a2.76 2.76 0 01-1.11-.234 2.893 2.893 0 01-.942-.666 3.082 3.082 0 01-.629-.997 3.228 3.228 0 01-.22-1.175V17.29H45.5v11.468c0 1.705.64 3.34 1.779 4.545 1.138 1.206 2.682 1.883 4.292 1.883h5.016c.797 0 1.587-.165 2.324-.488a6.06 6.06 0 001.972-1.393A6.472 6.472 0 0062.2 31.22c.305-.78.463-1.617.463-2.461zm20.015-6.157a5.477 5.477 0 00-1.473-3.749c-.94-.994-2.215-1.552-3.543-1.553H66.312v17.887h3.704v-7.264h3.837l5.745 7.264h4.486l-5.763-7.291c2.853-.233 4.36-2.053 4.358-5.294zM70.01 24.564V20.64h7.125c1.29 0 1.844.585 1.844 1.955s-.553 1.953-1.844 1.953l-7.125.015zm28.408 10.623c3.152 0 4.819-1.763 4.819-5.1 0-2.143-.755-3.32-1.607-3.942.892-.805 1.342-2.061 1.342-3.745 0-3.338-1.667-5.1-4.82-5.1h-11.81v17.887H98.42zm-8.376-14.531h7.387c1.294 0 1.844.585 1.844 1.955s-.55 1.953-1.844 1.953h-7.387v-3.908zm7.65 7.267c1.293 0 1.846.582 1.846 1.952s-.553 1.956-1.847 1.956h-7.649v-3.908h7.65zm22.411 7.264h3.785L116.003 17.3h-3.312l-7.882 17.887h3.816l1.71-3.923h8.033l1.736 3.923zm-8.307-7.27l2.55-5.777 2.565 5.777h-5.115z" fill="#000"/></g><defs><clipPath id="clip0"><path fill="#fff" d="M0 0h40v40H0z"/></clipPath></defs></svg>