<svg width="258" height="40" fill="none" xmlns="http://www.w3.org/2000/svg"><g clip-path="url(#clip0)"><path fill-rule="evenodd" clip-rule="evenodd" d="M27.746 29.206l-.387.418a9.104 9.104 0 012.482 1.744 9.332 9.332 0 00-2.095-2.162zM3.368 34.82a13.045 13.045 0 00-1.847 3.92h4.857a11.22 11.22 0 011.574-3.327c3.224-4.745 9.673-7.515 15.31-6.927l1.248-.988-.36-.125c-7.135-2.247-16.438 1.08-20.782 7.447z" fill="#F04B24"/><path d="M31.19 31.075a9.944 9.944 0 011.134 7.66h8.318c.926-3.986.018-7.806-2.567-10.798l-6.885 3.138zm-23.891-2.88l.639.89a22.33 22.33 0 015.056-2.396l-.027-1.857A26.937 26.937 0 007.3 28.195zM0 38.732h.381a13.9 13.9 0 012.052-4.398c.111-.163.223-.318.331-.469l-.519-.231A16.328 16.328 0 000 38.732zm2.94-6.118l.586.27a19.378 19.378 0 013.41-3.105l-.587-.804a22.22 22.22 0 00-3.409 3.639zm29.595-8.591l-2.963 3.202-.994 1.089a16.951 16.951 0 011.885 1.75L37.178 27a15.352 15.352 0 00-4.643-2.977zm-9.863 1.83c.703.121 1.397.289 2.078.5.258.083.586.196.862.297l4.396-3.49a22.392 22.392 0 00-5.08-.73l-2.256 3.422zm-1.337-.179l2.131-3.244c-3.182.1-6.324.744-9.294 1.904l.026 1.996a20.776 20.776 0 015.417-.736c.58 0 1.158.033 1.72.08zm-2.99 11.628a1.08 1.08 0 01-1.371.177 1.096 1.096 0 01-.45-.587 1.11 1.11 0 01.022-.743c.093-.238.264-.435.485-.558a1.073 1.073 0 011.359.261 1.105 1.105 0 01-.044 1.45zm7.2-9.392l-.98.78-6.811 5.421h-.2a2.397 2.397 0 00-1.34.415 2.44 2.44 0 00-.889 1.098 2.473 2.473 0 00.525 2.664 2.391 2.391 0 002.633.532 2.453 2.453 0 001.495-2.256 2.496 2.496 0 00-.026-.332l6.483-6.999.52-.563 6.582-7.118-7.993 6.358zm6.556-6.085l3.297-2.627-3.435-1.842v4.427l.138.042zm1.674.705a16.903 16.903 0 014.719 3.162l.78.78v-5.196l-3.055-1.637-2.611 2.826.167.066zM9.96 24.317c1.266-.703 2.345-1.254 2.345-1.254l1.665-.697v-12.16l-4.022 2.157.012 11.954zM30.97 12.35l-4.019-2.144v10.513c1.36.141 2.704.401 4.019.777V12.35zM4.778 27.872l1.943-1.575a25.769 25.769 0 012.245-1.42v-7.521L1.66 21.282v9.98a23.916 23.916 0 013.119-3.39zM15.989 3.406l4.476-2.393v19.792c.331-.045.662-.08.994-.113v-8.084l4.499-2.402V2.949L20.465.001 14.972 2.95v19.09l1.017-.356V3.406zm48.348 24.608V16.745h-3.81v11.27a3.051 3.051 0 01-.874 2.134 2.982 2.982 0 01-2.11.884H53.48a2.954 2.954 0 01-2.11-.884 3.021 3.021 0 01-.873-2.135V16.745h-3.81v11.27c0 1.674.657 3.281 1.828 4.466a6.206 6.206 0 004.414 1.85h5.159a6.18 6.18 0 002.39-.48 6.236 6.236 0 002.028-1.368 6.32 6.32 0 001.355-2.05 6.381 6.381 0 00.476-2.419zm20.585-6.05a5.254 5.254 0 00-1.515-3.684 5.132 5.132 0 00-3.644-1.526H68.089V34.33h3.81v-7.138h3.945l5.91 7.138h4.613l-5.927-7.165c2.934-.228 4.485-2.017 4.482-5.202zm-13.029 1.928v-3.855h7.328c1.328 0 1.896.575 1.896 1.921 0 1.347-.569 1.92-1.896 1.92l-7.328.014zm29.217 10.439c3.242 0 4.956-1.732 4.956-5.012 0-2.106-.776-3.262-1.653-3.873.918-.792 1.381-2.026 1.381-3.68 0-3.28-1.715-5.012-4.957-5.012H88.691V34.33h12.419zm-8.614-14.28h7.597c1.331 0 1.896.576 1.896 1.922 0 1.347-.565 1.919-1.896 1.919h-7.597v-3.84zm7.866 7.142c1.331 0 1.9.572 1.9 1.918 0 1.347-.569 1.922-1.9 1.922h-7.866v-3.84h7.866zm23.05 7.138h3.893l-8.111-17.577h-3.405l-8.108 17.577h3.925l1.759-3.856h8.262l1.785 3.856zm-8.544-7.144l2.624-5.676 2.637 5.676h-5.261zm18.665 7.143V22.226l10.057 12.106h3.514V16.75h-3.805v12.105L133.243 16.75h-3.514v17.58h3.804z" fill="#fff"/><path d="M169.755 23.394h-6.826a1.966 1.966 0 01-1.408-.593 2.016 2.016 0 01-.58-1.427c0-1.405.587-2.005 1.988-2.005h11.662v-3.457h-12.187a5.4 5.4 0 00-3.871 1.632 5.531 5.531 0 00-1.578 3.931c.029 3.523 1.897 5.385 5.405 5.385h6.826a1.983 1.983 0 011.406.593c.372.378.582.89.582 1.424 0 1.406-.587 2.005-1.988 2.005h-11.947v3.458h12.472c.719 0 1.431-.145 2.094-.425a5.452 5.452 0 001.773-1.206 5.565 5.565 0 001.582-3.924c-.029-3.532-1.897-5.391-5.405-5.391zm7.533-4.024h7.395v14.96h3.986V19.37h7.392v-3.458h-18.773v3.457zm37.16-3.458l-5.637 7.82-5.627-7.82h-4.596l8.23 11.411v7.008h3.987v-7.008l8.23-11.411h-4.587zm23.366 14.96h-12.512v-14.96h-3.984V34.33h16.496v-3.458zm20.186 0h-13.365V26.85h12.228v-3.455h-12.228V19.37h13.081v-3.458h-17.067V34.33H258v-3.458z" fill="#F04B24"/></g><defs><clipPath id="clip0"><path fill="#fff" transform="translate(0 .001)" d="M0 0h258v39H0z"/></clipPath></defs></svg>