<svg width="139" height="29" fill="none" xmlns="http://www.w3.org/2000/svg"><path d="M64.436.576l-.01.5.01-.5zm74.139 26.46a.5.5 0 00.314-.633l-1.438-4.264a.5.5 0 00-.947.32l1.278 3.79-3.79 1.279a.5.5 0 10.319.947l4.264-1.438zM.415 26.564a77.236 77.236 0 00.33.376.996.996 0 01.02-.017c.014-.012.036-.03.064-.056l.26-.22c.23-.193.572-.477 1.02-.838.897-.724 2.216-1.759 3.904-2.999a135.27 135.27 0 0114.119-9.059C31.923 7.187 47.837.737 64.426 1.076l.02-1c-16.843-.344-32.94 6.199-44.8 12.8A136.188 136.188 0 005.42 22.003a109.527 109.527 0 00-3.94 3.026 68.027 68.027 0 00-1.388 1.152l-.004.004H.087l.328.378zm64.01-25.487c5.546.113 12.923 1.777 20.902 4.232 7.969 2.452 16.499 5.68 24.334 8.896a503.573 503.573 0 0127.951 12.521l.434.213.111.055.027.014.007.003h.002l.222-.447.222-.448-.002-.001-.007-.004-.029-.014-.111-.055-.437-.214a464.385 464.385 0 00-7.825-3.713 505.258 505.258 0 00-20.185-8.835c-7.851-3.222-16.412-6.463-24.42-8.926C77.622 1.892 70.135.193 64.446.076l-.02 1z" fill="#fff"/></svg>