<svg width="124" height="124" fill="none" xmlns="http://www.w3.org/2000/svg"><path d="M45.253 71.577h-3.775V54.963l-3.516 3.646-2.194-2.29 6.194-6.26h3.29v21.518zm16.094-.58c-1.14.645-2.43.967-3.871.967-1.441 0-2.732-.322-3.871-.967a7.438 7.438 0 01-2.71-2.581 13.094 13.094 0 01-1.517-3.549 15.584 15.584 0 01-.516-4.032c0-1.398.172-2.742.516-4.033a12.6 12.6 0 011.517-3.516 7.438 7.438 0 012.71-2.581c1.14-.645 2.43-.968 3.87-.968 1.442 0 2.732.323 3.872.968a7.438 7.438 0 012.71 2.58 12.607 12.607 0 011.516 3.517 15.58 15.58 0 01.516 4.033 15.58 15.58 0 01-.516 4.032 13.094 13.094 0 01-1.516 3.549 7.438 7.438 0 01-2.71 2.58zm-7.484-4.581c.774 1.462 1.978 2.193 3.613 2.193 1.634 0 2.839-.73 3.613-2.193s1.161-3.323 1.161-5.581c0-1.441-.15-2.721-.451-3.84-.28-1.118-.796-2.042-1.549-2.774-.731-.752-1.656-1.129-2.774-1.129-1.119 0-2.054.377-2.807 1.13-.731.73-1.247 1.655-1.548 2.774-.28 1.118-.42 2.398-.42 3.839 0 2.258.387 4.118 1.162 5.58zm19.782-6.001c-1.57 0-2.85-.494-3.84-1.484-.988-1.01-1.483-2.28-1.483-3.806 0-1.549.495-2.829 1.484-3.84.99-1.032 2.269-1.548 3.839-1.548 1.591 0 2.882.516 3.871 1.549 1.01 1.01 1.516 2.29 1.516 3.839 0 1.527-.505 2.795-1.516 3.806-.99.99-2.28 1.484-3.871 1.484zm.064 11.162H71.58L85.323 50.06h2.162L73.709 71.577zm15.356-1.097c-.99.99-2.269 1.484-3.839 1.484-1.57 0-2.85-.494-3.839-1.484-.989-1.01-1.484-2.28-1.484-3.806 0-1.549.495-2.828 1.484-3.84.99-1.032 2.27-1.548 3.84-1.548 1.57 0 2.849.516 3.838 1.549 1.011 1.032 1.517 2.312 1.517 3.839 0 1.527-.506 2.796-1.517 3.806zm-15.42-12.194c.839 0 1.527-.29 2.065-.871.537-.602.806-1.366.806-2.29 0-.968-.269-1.742-.806-2.323-.538-.602-1.226-.903-2.065-.903s-1.527.3-2.065.903c-.516.58-.774 1.355-.774 2.323 0 .924.269 1.688.806 2.29.538.58 1.216.871 2.033.871zm9.517 10.678c.537.58 1.225.871 2.064.871.84 0 1.527-.29 2.065-.87.538-.603.806-1.367.806-2.291 0-.968-.268-1.742-.806-2.323-.538-.602-1.226-.903-2.065-.903-.838 0-1.527.3-2.064.903-.517.58-.775 1.355-.775 2.323 0 .924.258 1.688.775 2.29z" fill="#FD1919"/><path d="M26.186 83.723c.977 1.455 1.318 2.996 1.023 4.625-.31 1.625-1.223 2.946-2.738 3.963-1.514 1.016-3.077 1.358-4.689 1.023-1.629-.337-2.931-1.233-3.908-2.688-1.07-1.594-1.258-3.296-.566-5.105l1.286.655a3.967 3.967 0 00-.264 1.868c.059.669.276 1.282.65 1.84.736 1.096 1.735 1.755 2.997 1.977 1.245.219 2.456-.066 3.632-.856 1.175-.789 1.902-1.805 2.181-3.047.263-1.245.026-2.416-.71-3.512a3.972 3.972 0 00-1.442-1.308 3.903 3.903 0 00-1.844-.454l-.13-1.452c1.965.083 3.472.907 4.522 2.471zm-6.702-16.599l.43 1.674-3.003 4.005 1.735 1.041 2.406-.618.336 1.307-8.42 2.164-.336-1.308 4.48-1.15-5.618-3.278-.426-1.656 4.777 2.75 3.64-4.93zm-.346-7.043l-.073 1.294-8.68-.503.077-1.347 6.63.383-6.371-4.93.076-1.33 8.68.503-.078 1.347-6.756-.39 6.495 4.973zm3.355-10.185l-3.096-1.224c.085-.444-.033-.865-.353-1.262-.331-.402-1.032-.899-2.102-1.49l-3.778-2.093 2.223-5.625 6.98 2.76.371-.937 3.164 1.25-.497 1.256-2.058-.814-2.416 6.11 2.059.814-.497 1.255zm-7.788-6.737l2.884 1.566c1.343.75 2.137 1.515 2.383 2.297l1.9-4.804-5.876-2.324-1.29 3.265zm17.297-13.726l-1.108 1.326-5.005-.1.169 2.018 1.906 1.592-.865 1.036-6.674-5.572.866-1.036 3.55 2.965-.62-6.475 1.096-1.313.557 5.484 6.128.075zm10.156-7.343l-1.14.725-.53-.836c-.187 1.072-.782 1.926-1.784 2.563a3.198 3.198 0 01-2.208.486c-.793-.107-1.428-.535-1.904-1.284-.49-.77-.613-1.523-.37-2.26a3.269 3.269 0 011.401-1.788c1.044-.663 2.066-.844 3.068-.542l-.84-1.322c-.309-.486-.722-.756-1.24-.81-.519-.055-1.051.091-1.598.439-.86.547-1.395 1.363-1.601 2.447l-1.034-.452c.265-1.306.984-2.332 2.16-3.079.84-.534 1.652-.766 2.436-.696.784.07 1.444.526 1.978 1.366l3.206 5.043zm-3.565 1.371c.911-.58 1.391-1.311 1.44-2.196l-.878-1.382c-.822-.33-1.688-.206-2.6.373-.527.335-.865.763-1.017 1.286-.147.506-.07.997.233 1.473.296.466.708.745 1.235.836.531.075 1.06-.055 1.587-.39zm19.68-6.137l-1.348.07-.447-8.683 1.348-.07.186 3.614 4.53-.234-.186-3.613 1.348-.07.447 8.683-1.348.07-.2-3.883-4.53.233.2 3.883zm18.58 2.136l-1.306-.343.252-.957c-.912.59-1.943.735-3.092.433a3.198 3.198 0 01-1.857-1.29c-.46-.654-.578-1.411-.352-2.27.233-.882.701-1.484 1.407-1.807a3.268 3.268 0 012.264-.186c1.195.315 2.023.942 2.482 1.882l.399-1.515c.147-.557.064-1.044-.248-1.46-.312-.418-.782-.71-1.408-.874-.987-.26-1.948-.097-2.884.488l-.37-1.066c1.137-.693 2.38-.862 3.726-.508.963.254 1.685.692 2.166 1.315.481.623.595 1.416.342 2.38l-1.521 5.779zm-3.429-1.684c1.045.275 1.908.13 2.59-.435l.417-1.584c-.315-.827-.995-1.378-2.04-1.653-.603-.16-1.148-.117-1.634.128-.472.235-.78.626-.923 1.171-.14.534-.065 1.026.226 1.475.306.44.761.74 1.364.898zM87.63 29.269l1.001-.736c.09.218.235.423.435.613.225.215.458.346.696.391.24.045.53-.008.875-.16l1.324-.554 3.432-8.865 1.055 1.006-2.823 7.158 7.004-3.17 1.068 1.02-10.37 4.56c-1.143.502-2.165.34-3.068-.488a3.664 3.664 0 01-.63-.775zm12.753 10.591c-.639-1.114-.784-2.234-.434-3.362.36-1.133 1.107-2.025 2.242-2.676 1.135-.65 2.277-.842 3.426-.574 1.15.268 2.044.958 2.682 2.072.669 1.166.76 2.338.274 3.516l-1.166-.369c.381-.855.342-1.683-.118-2.484-.454-.792-1.088-1.271-1.904-1.44-.81-.158-1.642.008-2.496.497-.853.49-1.422 1.127-1.705 1.912-.266.79-.173 1.58.281 2.37.453.792 1.148 1.244 2.085 1.357l-.271 1.193c-1.262-.176-2.228-.846-2.896-2.012zm3.219 6.85l1.088-.245c.09.398.428.666 1.012.805.585.138 1.511.15 2.777.037l4.302-.4 1.332 5.9-8.481 1.915-.297-1.317 7.322-1.653-.774-3.424-3.265.332c-1.599.164-2.791.089-3.575-.226-.773-.318-1.254-.892-1.441-1.723zm-1.018 13.461l1.203.31a1.81 1.81 0 00-.2.724c-.023.311.023.573.139.787.116.213.342.405.678.575l1.266.675 9.036-2.954-.111 1.454-7.329 2.345 6.887 3.416-.113 1.471-10.094-5.142c-1.112-.567-1.633-1.461-1.564-2.683a3.67 3.67 0 01.202-.978zm7.449 21.809l-1.114-.412 1.643-4.44-7.039-2.605.468-1.266 8.154 3.018-2.112 5.706zm-13.315-.615l.86.898a1.8 1.8 0 00-.553.51c-.184.252-.284.499-.298.742-.014.242.077.524.272.846l.72 1.242 9.234 2.259-.862 1.176-7.462-1.876 4.047 6.536-.872 1.191-5.86-9.695c-.646-1.068-.617-2.103.087-3.105.213-.29.442-.531.687-.724z" fill="#fff"/><circle cx="62" cy="62" r="61" stroke="#E6E6E6" stroke-width="2"/><circle cx="62" cy="62" r="32.772" stroke="#E6E6E6" stroke-width="2"/></svg>