<svg width="88" height="85" fill="none" xmlns="http://www.w3.org/2000/svg"><path d="M62.726 57.072c-13.26-.115-25.934-5.282-35.268-14.376-9.333-9.093-14.57-21.378-14.568-34.18a3.87 3.87 0 00-1.195-2.785 4.153 4.153 0 00-2.884-1.153A4.153 4.153 0 005.928 5.73a3.87 3.87 0 00-1.195 2.784c-.014 14.898 6.08 29.195 16.948 39.769 10.869 10.574 25.63 16.565 41.06 16.664l5.43-3.933-5.445-3.943zm-2.53-14.957l21.75 15.75c.506.367.917.843 1.2 1.39a3.826 3.826 0 010 3.521 3.974 3.974 0 01-1.2 1.39l-21.75 15.75a4.188 4.188 0 01-3.024.747 4.108 4.108 0 01-2.686-1.535 3.837 3.837 0 01-.774-2.92 3.914 3.914 0 011.59-2.593l17.4-12.6-17.4-12.6a3.99 3.99 0 01-1.062-1.143 3.806 3.806 0 01-.441-2.983c.132-.502.366-.973.687-1.386a4.107 4.107 0 012.686-1.536 4.218 4.218 0 011.589.084 4.14 4.14 0 011.435.664z" fill="#fff"/></svg>